<svg version="1.1" id="Ebene_1" xmlns="http://www.w3.org/2000/svg" x="0" y="0" viewBox="0 0 260 188.7" xml:space="preserve"><style>.st0{fill:#fff}</style><path class="st0" d="M21.1 94.7h218V98h-218v-3.3zM23.5 141c0 17.4 11.1 30.9 29.6 30.9s29.6-13.6 29.6-30.9-11.1-31-29.6-31c-18.5.1-29.7 13.6-29.6 31m9.8 0c0-11.6 5.8-21.9 19.7-21.9 13.8 0 19.6 10.3 19.6 21.9 0 11.4-5.8 21.9-19.6 21.9-13.9 0-19.7-10.5-19.7-21.9M147.5 171.2h8.8v-59.4H143l-16.2 44.6-16.2-44.6H97.3v59.4h9l-.1-47.5 17.5 47.5h6.3l17.5-47.5v47.5zm75.3-59.4l-21 45.2-21-45.2h-11l27.5 59.5h8.3l28-59.5h-10.8zm-12-93.5l-14.7 25.6h3.8l14.8-25.6H239L201.3 83l-37.5-64.7h47zm-87.8 0l-14.8 25.6h3.8l14.8-25.6h18.3l-14.8 25.6h3.9l14.7-25.6h9.7V83h-64V18.3H123zm-56.7.5c13.1 4.7 22.5 17.3 22.5 31.9 0 18.7-15.2 33.9-33.9 33.9s-34-15.2-34-33.9 15.2-33.9 33.9-33.9c2.8 0 5.5.5 8.2 1.1L48 44h3.8l14.5-25.2z"/></svg>